<?xml version="1.0" encoding="UTF-8" standalone="no"?>
<!-- Created with Inkscape (http://www.inkscape.org/) -->

<svg
   xmlns:dc="http://purl.org/dc/elements/1.1/"
   xmlns:cc="http://creativecommons.org/ns#"
   xmlns:rdf="http://www.w3.org/1999/02/22-rdf-syntax-ns#"
   xmlns:svg="http://www.w3.org/2000/svg"
   xmlns="http://www.w3.org/2000/svg"
   xmlns:xlink="http://www.w3.org/1999/xlink"
   xmlns:sodipodi="http://sodipodi.sourceforge.net/DTD/sodipodi-0.dtd"
   xmlns:inkscape="http://www.inkscape.org/namespaces/inkscape"
   width="384.28571"
   height="511.42856"
   id="svg3961"
   version="1.1"
   inkscape:version="0.48.4 r9939"
   sodipodi:docname="New document 4">
  <defs
     id="defs3963">
    <linearGradient
       inkscape:collect="always"
       xlink:href="#linearGradient3807"
       id="linearGradient3813"
       x1="425.66864"
       y1="362.36218"
       x2="559.07062"
       y2="362.36218"
       gradientUnits="userSpaceOnUse"
       spreadMethod="reflect" />
    <linearGradient
       id="linearGradient3807">
      <stop
         style="stop-color:#e3e3e3;stop-opacity:1;"
         offset="0"
         id="stop3809" />
      <stop
         style="stop-color:#66647b;stop-opacity:0.89803922;"
         offset="1"
         id="stop3811" />
    </linearGradient>
    <radialGradient
       inkscape:collect="always"
       xlink:href="#linearGradient3807"
       id="radialGradient3853"
       gradientUnits="userSpaceOnUse"
       gradientTransform="matrix(1.0132291,-0.00971513,0.00357962,0.37336221,-6.0194393,179.597)"
       cx="376.01523"
       cy="287.70511"
       fx="376.01523"
       fy="287.70511"
       r="182.64285" />
    <linearGradient
       id="linearGradient3872">
      <stop
         style="stop-color:#ffffff;stop-opacity:1"
         offset="0"
         id="stop3874" />
      <stop
         style="stop-color:#858585;stop-opacity:1;"
         offset="1"
         id="stop3876" />
    </linearGradient>
    <linearGradient
       inkscape:collect="always"
       xlink:href="#linearGradient3807"
       id="linearGradient3878"
       x1="425.66864"
       y1="362.36218"
       x2="559.07062"
       y2="362.36218"
       gradientUnits="userSpaceOnUse"
       spreadMethod="reflect" />
    <linearGradient
       id="linearGradient3880">
      <stop
         style="stop-color:#ffffff;stop-opacity:1"
         offset="0"
         id="stop3882" />
      <stop
         style="stop-color:#858585;stop-opacity:1;"
         offset="1"
         id="stop3884" />
    </linearGradient>
    <radialGradient
       inkscape:collect="always"
       xlink:href="#linearGradient3807"
       id="radialGradient3886"
       gradientUnits="userSpaceOnUse"
       gradientTransform="matrix(1.0132291,-0.00971513,0.00357962,0.37336221,-6.0194393,179.597)"
       cx="376.01523"
       cy="287.70511"
       fx="376.01523"
       fy="287.70511"
       r="182.64285" />
    <linearGradient
       id="linearGradient3888">
      <stop
         style="stop-color:#ffffff;stop-opacity:1"
         offset="0"
         id="stop3890" />
      <stop
         style="stop-color:#858585;stop-opacity:1;"
         offset="1"
         id="stop3892" />
    </linearGradient>
    <linearGradient
       inkscape:collect="always"
       xlink:href="#linearGradient3807"
       id="linearGradient3894"
       x1="425.66864"
       y1="362.36218"
       x2="559.07062"
       y2="362.36218"
       gradientUnits="userSpaceOnUse"
       spreadMethod="reflect" />
    <linearGradient
       id="linearGradient3896">
      <stop
         style="stop-color:#ffffff;stop-opacity:1"
         offset="0"
         id="stop3898" />
      <stop
         style="stop-color:#858585;stop-opacity:1;"
         offset="1"
         id="stop3900" />
    </linearGradient>
    <radialGradient
       inkscape:collect="always"
       xlink:href="#linearGradient3807"
       id="radialGradient3902"
       gradientUnits="userSpaceOnUse"
       gradientTransform="matrix(1.0132291,-0.00971513,0.00357962,0.37336221,-6.0194393,179.597)"
       cx="376.01523"
       cy="287.70511"
       fx="376.01523"
       fy="287.70511"
       r="182.64285" />
    <linearGradient
       id="linearGradient3904">
      <stop
         style="stop-color:#ffffff;stop-opacity:1"
         offset="0"
         id="stop3906" />
      <stop
         style="stop-color:#858585;stop-opacity:1;"
         offset="1"
         id="stop3908" />
    </linearGradient>
    <linearGradient
       inkscape:collect="always"
       xlink:href="#linearGradient3807"
       id="linearGradient3910"
       x1="425.66864"
       y1="362.36218"
       x2="559.07062"
       y2="362.36218"
       gradientUnits="userSpaceOnUse"
       spreadMethod="reflect" />
    <linearGradient
       id="linearGradient3912">
      <stop
         style="stop-color:#ffffff;stop-opacity:1"
         offset="0"
         id="stop3914" />
      <stop
         style="stop-color:#858585;stop-opacity:1;"
         offset="1"
         id="stop3916" />
    </linearGradient>
    <radialGradient
       inkscape:collect="always"
       xlink:href="#linearGradient3807"
       id="radialGradient3918"
       gradientUnits="userSpaceOnUse"
       gradientTransform="matrix(1.0132291,-0.00971513,0.00357962,0.37336221,-6.0194393,179.597)"
       cx="376.01523"
       cy="287.70511"
       fx="376.01523"
       fy="287.70511"
       r="182.64285" />
    <linearGradient
       id="linearGradient3920">
      <stop
         style="stop-color:#ffffff;stop-opacity:1"
         offset="0"
         id="stop3922" />
      <stop
         style="stop-color:#858585;stop-opacity:1;"
         offset="1"
         id="stop3924" />
    </linearGradient>
    <linearGradient
       inkscape:collect="always"
       xlink:href="#linearGradient3807"
       id="linearGradient3926"
       x1="425.66864"
       y1="362.36218"
       x2="559.07062"
       y2="362.36218"
       gradientUnits="userSpaceOnUse"
       spreadMethod="reflect" />
    <linearGradient
       id="linearGradient3928">
      <stop
         style="stop-color:#ffffff;stop-opacity:1"
         offset="0"
         id="stop3930" />
      <stop
         style="stop-color:#858585;stop-opacity:1;"
         offset="1"
         id="stop3932" />
    </linearGradient>
    <radialGradient
       inkscape:collect="always"
       xlink:href="#linearGradient3807"
       id="radialGradient3934"
       gradientUnits="userSpaceOnUse"
       gradientTransform="matrix(1.0132291,-0.00971513,0.00357962,0.37336221,-6.0194393,179.597)"
       cx="376.01523"
       cy="287.70511"
       fx="376.01523"
       fy="287.70511"
       r="182.64285" />
    <linearGradient
       id="linearGradient3936">
      <stop
         style="stop-color:#ffffff;stop-opacity:1"
         offset="0"
         id="stop3938" />
      <stop
         style="stop-color:#858585;stop-opacity:1;"
         offset="1"
         id="stop3940" />
    </linearGradient>
    <radialGradient
       r="182.64285"
       fy="287.70511"
       fx="376.01523"
       cy="287.70511"
       cx="376.01523"
       gradientTransform="matrix(1.0132291,-0.00971513,0.00357962,0.37336221,-6.0194393,179.597)"
       gradientUnits="userSpaceOnUse"
       id="radialGradient3953"
       xlink:href="#linearGradient3807"
       inkscape:collect="always" />
    <linearGradient
       y2="362.36218"
       x2="559.07062"
       y1="362.36218"
       x1="425.66864"
       spreadMethod="reflect"
       gradientUnits="userSpaceOnUse"
       id="linearGradient3957"
       xlink:href="#linearGradient3807"
       inkscape:collect="always" />
    <radialGradient
       inkscape:collect="always"
       xlink:href="#linearGradient3807"
       id="radialGradient4100"
       gradientUnits="userSpaceOnUse"
       gradientTransform="matrix(1.0132291,-0.00971513,0.00357962,0.37336221,-19.590859,188.16844)"
       cx="376.01523"
       cy="287.70511"
       fx="376.01523"
       fy="287.70511"
       r="182.64285" />
    <linearGradient
       inkscape:collect="always"
       xlink:href="#linearGradient3807"
       id="linearGradient4656"
       gradientUnits="userSpaceOnUse"
       gradientTransform="translate(-13.571419,7.8571548)"
       spreadMethod="reflect"
       x1="425.66864"
       y1="362.36218"
       x2="559.07062"
       y2="362.36218" />
    <clipPath
       clipPathUnits="userSpaceOnUse"
       id="clipPath4676">
      <g
         id="g4678"
         transform="translate(13.571419,-8.5714405)">
        <path
           inkscape:connector-curvature="0"
           id="path4680"
           d="m 183.57143,609.50504 c 0,33.53157 81.54814,60.71428 182.14286,60.71428 100.59472,0 182.14285,-27.18271 182.14285,-60.71428 l 0,50 c 0,33.53157 -81.54813,60.71428 -182.14285,60.71428 -100.59472,0 -182.14286,-27.18271 -182.14286,-60.71428 z"
           style="fill:#ff0000;fill-opacity:1;stroke:none" />
        <path
           inkscape:connector-curvature="0"
           id="path4682"
           d="m 183.57143,529.50504 c 0,33.53157 81.54814,60.71428 182.14286,60.71428 100.59472,0 182.14285,-27.18271 182.14285,-60.71428 l 0,50 c 0,33.53157 -81.54813,60.71428 -182.14285,60.71428 -100.59472,0 -182.14286,-27.18271 -182.14286,-60.71428 z"
           style="fill:#ff0000;fill-opacity:1;stroke:none" />
        <path
           inkscape:connector-curvature="0"
           id="path4684"
           d="m 183.57143,448.79076 c 0,33.53157 81.54814,60.71428 182.14286,60.71428 100.59472,0 182.14285,-27.18271 182.14285,-60.71428 l 0,50 c 0,33.53157 -81.54813,60.71428 -182.14285,60.71428 -100.59472,0 -182.14286,-27.18271 -182.14286,-60.71428 z"
           style="fill:#ff0000;fill-opacity:1;stroke:none" />
        <path
           inkscape:connector-curvature="0"
           id="path4686"
           d="m 183.57143,368.79076 c 0,33.53157 81.54814,60.71428 182.14286,60.71428 100.59472,0 182.14285,-27.18271 182.14285,-60.71428 l 0,50 c 0,33.53157 -81.54813,60.71428 -182.14285,60.71428 -100.59472,0 -182.14286,-27.18271 -182.14286,-60.71428 z"
           style="fill:#ff0000;fill-opacity:1;stroke:none" />
        <path
           inkscape:connector-curvature="0"
           id="path4688"
           d="m 183.57143,288.79076 c 0,33.53157 81.54814,60.71428 182.14286,60.71428 100.59472,0 182.14285,-27.18271 182.14285,-60.71428 l 0,50 c 0,33.53157 -81.54813,60.71428 -182.14285,60.71428 -100.59472,0 -182.14286,-27.18271 -182.14286,-60.71428 z"
           style="fill:#ff0000;fill-opacity:1;stroke:none" />
      </g>
    </clipPath>
  </defs>
  <sodipodi:namedview
     id="base"
     pagecolor="#ffffff"
     bordercolor="#666666"
     borderopacity="1.0"
     inkscape:pageopacity="0.0"
     inkscape:pageshadow="2"
     inkscape:zoom="0.7"
     inkscape:cx="148.9703"
     inkscape:cy="144.8897"
     inkscape:document-units="px"
     inkscape:current-layer="layer1"
     showgrid="false"
     inkscape:snap-page="true"
     fit-margin-top="10"
     fit-margin-left="10"
     fit-margin-bottom="10"
     fit-margin-right="10"
     inkscape:window-width="1278"
     inkscape:window-height="749"
     inkscape:window-x="0"
     inkscape:window-y="26"
     inkscape:window-maximized="1" />
  <metadata
     id="metadata3966">
    <rdf:RDF>
      <cc:Work
         rdf:about="">
        <dc:format>image/svg+xml</dc:format>
        <dc:type
           rdf:resource="http://purl.org/dc/dcmitype/StillImage" />
        <dc:title></dc:title>
      </cc:Work>
    </rdf:RDF>
  </metadata>
  <g
     inkscape:label="Layer 1"
     inkscape:groupmode="layer"
     id="layer1"
     transform="translate(-173.57143,-219.50504)">
    <use
       x="0"
       y="0"
       xlink:href="#path2985"
       id="use3823"
       transform="translate(-7.1428573e-7,320)"
       width="744.09448"
       height="1052.3622" />
    <use
       x="0"
       y="0"
       xlink:href="#path2997"
       id="use3825"
       transform="translate(-7.1428573e-7,320)"
       width="744.09448"
       height="1052.3622" />
    <use
       height="1052.3622"
       width="744.09448"
       transform="translate(-7.1428573e-7,240)"
       id="use3827"
       xlink:href="#path2985"
       y="0"
       x="0" />
    <use
       height="1052.3622"
       width="744.09448"
       transform="translate(-7.1428573e-7,240)"
       id="use3829"
       xlink:href="#path2997"
       y="0"
       x="0" />
    <use
       height="1052.3622"
       width="744.09448"
       transform="translate(-7.1428573e-7,160)"
       id="use3819"
       xlink:href="#path2985"
       y="0"
       x="0" />
    <use
       height="1052.3622"
       width="744.09448"
       transform="translate(-7.1428573e-7,160)"
       id="use3821"
       xlink:href="#path2997"
       y="0"
       x="0" />
    <use
       x="0"
       y="0"
       xlink:href="#path2985"
       id="use3815"
       transform="translate(-7.1428573e-7,80)"
       width="744.09448"
       height="1052.3622" />
    <use
       x="0"
       y="0"
       xlink:href="#path2997"
       id="use3817"
       transform="translate(-7.1428573e-7,80)"
       width="744.09448"
       height="1052.3622" />
    <path
       inkscape:connector-curvature="0"
       style="fill:url(#radialGradient4100);fill-opacity:1;stroke:none"
       d="m 547.85714,290.21933 c 0,33.53157 -81.54813,60.71428 -182.14285,60.71428 -100.59472,0 -182.14286,-27.18271 -182.14286,-60.71428 0,-33.53158 81.54814,-60.71429 182.14286,-60.71429 100.59472,0 182.14285,27.18271 182.14285,60.71429 z"
       id="path2985" />
    <path
       id="path2997"
       d="m 183.57143,289.50504 c 0,33.53157 81.54814,60.71428 182.14286,60.71428 100.59472,0 182.14285,-27.18271 182.14285,-60.71428 l 0,50 c 0,33.53157 -81.54813,60.71428 -182.14285,60.71428 -100.59472,0 -182.14286,-27.18271 -182.14286,-60.71428 z"
       style="fill:url(#linearGradient4656);fill-opacity:1;stroke:none"
       inkscape:connector-curvature="0"
       sodipodi:nodetypes="csccscc" />
    <path
       transform="translate(-13.571419,8.5714405)"
       style="fill:#3434af;fill-opacity:1;fill-rule:nonzero;stroke:#000000"
       d="m 299.46806,339.46702 c -31.20604,15.59504 -37.19938,82.23641 -32.4445,120.65725 5.41162,43.72693 19.3074,85.89474 43.85635,121.40683 0,0 20.96883,-8.81202 43.24994,9.21359 -20.27699,-11.20008 -37.15287,-0.84202 -37.15287,-0.84202 2.37209,3.10843 4.83279,6.15956 7.38332,9.14915 0.17462,-0.34572 14.88454,-11.7955 34.43546,-0.0657 -24.14145,-3.8554 -29.795,5.0669 -29.795,5.0669 4.08537,4.49283 8.18738,8.88751 12.70932,13.06604 0,0 21.16804,-0.64433 45.8486,27.61628 0,0 32.48044,45.65522 57.69256,66.74587 -2.40115,-2.81806 -4.72875,-5.71519 -7.01711,-8.65936 -97.63698,-118.8584 -168.09572,-234.58327 -119.43458,-342.7197 -27.4926,83.74988 16.01558,178.94423 77.68892,277.16678 -21.44291,-52.41781 -6.55693,-71.4868 -6.55693,-71.4868 0,0 -4.99665,-13.2434 -10.55277,-31.53979 0,0 -14.67854,1.92154 -19.05986,36.57719 -0.84103,-47.49636 14.84174,-51.18635 14.84174,-51.18635 -2.3465,-8.59132 -4.60579,-17.72938 -6.41347,-26.78185 -10.98775,-55.02776 0.96687,-155.84434 -54.31364,-156.71178 -5.52986,-0.0868 -10.50748,1.09963 -14.96548,3.32747 z"
       id="path3788"
       inkscape:connector-curvature="0"
       clip-path="url(#clipPath4676)" />
  </g>
</svg>
